P2
25 35 
255
100 100 100 100 100 115 115 115 115 115 112 112 112 112 112 100 100 100 100 100 112 112 112 112 112 
100 100 100 100 100 115 115 115 115 115 112 112 112 112 112 100 100 100 100 100 112 112 112 112 112 
100 100 100 100 100 115 115 115 115 115 112 112 112 112 112 100 100 100 100 100 112 112 112 112 112 
100 100 100 100 100 115 115 115 115 115 112 112 112 112 112 100 100 100 100 100 112 112 112 112 112 
100 100 100 100 100 115 115 115 115 115 112 112 112 112 112 100 100 100 100 100 112 112 112 112 112 
100 100 100 100 100 110 110 110 110 110 112 112 112 112 112 110 110 110 110 110 112 112 112 112 112 
100 100 100 100 100 110 110 110 110 110 112 112 112 112 112 110 110 110 110 110 112 112 112 112 112 
100 100 100 100 100 110 110 110 110 110 112 112 112 112 112 110 110 110 110 110 112 112 112 112 112 
100 100 100 100 100 110 110 110 110 110 112 112 112 112 112 110 110 110 110 110 112 112 112 112 112 
100 100 100 100 100 110 110 110 110 110 112 112 112 112 112 110 110 110 110 110 112 112 112 112 112 
100 100 100 100 100 110 110 110 110 110 124 124 124 124 124 110 110 110 110 110 123 123 123 123 123 
100 100 100 100 100 110 110 110 110 110 124 124 124 124 124 110 110 110 110 110 123 123 123 123 123 
100 100 100 100 100 110 110 110 110 110 124 124 124 124 124 110 110 110 110 110 123 123 123 123 123 
100 100 100 100 100 110 110 110 110 110 124 124 124 124 124 110 110 110 110 110 123 123 123 123 123 
100 100 100 100 100 110 110 110 110 110 124 124 124 124 124 110 110 110 110 110 123 123 123 123 123 
100 100 100 100 100 110 110 110 110 110 110 110 110 110 110 110 110 110 110 110 119 119 119 119 119 
100 100 100 100 100 110 110 110 110 110 110 110 110 110 110 110 110 110 110 110 119 119 119 119 119 
100 100 100 100 100 110 110 110 110 110 110 110 110 110 110 110 110 110 110 110 119 119 119 119 119 
100 100 100 100 100 110 110 110 110 110 110 110 110 110 110 110 110 110 110 110 119 119 119 119 119 
100 100 100 100 100 110 110 110 110 110 110 110 110 110 110 110 110 110 110 110 119 119 119 119 119 
 90  90  90  90  90 110 110 110 110 110 100 100 100 100 100 110 110 110 110 110 111 111 111 111 111 
 90  90  90  90  90 110 110 110 110 110 100 100 100 100 100 110 110 110 110 110 111 111 111 111 111 
 90  90  90  90  90 110 110 110 110 110 100 100 100 100 100 110 110 110 110 110 111 111 111 111 111 
 90  90  90  90  90 110 110 110 110 110 100 100 100 100 100 110 110 110 110 110 111 111 111 111 111 
 90  90  90  90  90 110 110 110 110 110 100 100 100 100 100 110 110 110 110 110 111 111 111 111 111 
111 111 111 111 111 110 110 110 110 110 163 163 163 163 163 110 110 110 110 110 120 120 120 120 120 
111 111 111 111 111 110 110 110 110 110 163 163 163 163 163 110 110 110 110 110 120 120 120 120 120 
111 111 111 111 111 110 110 110 110 110 163 163 163 163 163 110 110 110 110 110 120 120 120 120 120 
111 111 111 111 111 110 110 110 110 110 163 163 163 163 163 110 110 110 110 110 120 120 120 120 120 
111 111 111 111 111 110 110 110 110 110 163 163 163 163 163 110 110 110 110 110 120 120 120 120 120 
100 100 100 100 100  99  99  99  99  99 111 111 111 111 111 155 155 155 155 155 113 113 113 113 113 
100 100 100 100 100  99  99  99  99  99 111 111 111 111 111 155 155 155 155 155 113 113 113 113 113 
100 100 100 100 100  99  99  99  99  99 111 111 111 111 111 155 155 155 155 155 113 113 113 113 113 
100 100 100 100 100  99  99  99  99  99 111 111 111 111 111 155 155 155 155 155 113 113 113 113 113 
100 100 100 100 100  99  99  99  99  99 111 111 111 111 111 155 155 155 155 155 113 113 113 113 113 
